<?xml version="1.0" encoding="UTF-8" standalone="no"?>
<!DOCTYPE svg PUBLIC "-//W3C//DTD SVG 1.1//EN" "http://www.w3.org/Graphics/SVG/1.1/DTD/svg11.dtd">
<svg width="100%" height="100%" viewBox="0 0 2481 3508" version="1.1" xmlns="http://www.w3.org/2000/svg" xmlns:xlink="http://www.w3.org/1999/xlink" xml:space="preserve" xmlns:serif="http://www.serif.com/" style="fill-rule:evenodd;clip-rule:evenodd;stroke-linejoin:round;stroke-miterlimit:2;">
    <g transform="matrix(3.568481,0,0,3.568481,-854.657199,-4687.952952)">
        <path d="M413.915,1719.161C414.728,1719.161 415.211,1718.995 415.361,1718.661C415.511,1718.328 415.586,1717.382 415.59,1715.828C415.59,1715.157 415.482,1714.732 415.261,1714.549C415.04,1714.365 414.557,1714.27 413.815,1714.27L404.144,1714.27L404.178,1700.707C404.178,1699.89 404.107,1699.224 403.957,1698.707C403.811,1698.186 403.478,1697.928 402.961,1697.928C402.59,1697.928 401.957,1698.336 401.069,1699.149L395.944,1703.711C395.273,1704.378 394.828,1704.949 394.603,1705.432C394.382,1705.911 394.269,1706.636 394.265,1707.603L394.248,1714.27L388.357,1714.27C387.54,1714.345 387.061,1714.528 386.911,1714.824C386.761,1715.124 386.686,1716.011 386.682,1717.495C386.682,1718.236 386.769,1718.699 386.957,1718.882C387.14,1719.07 387.607,1719.161 388.344,1719.161L394.236,1719.161L394.144,1757.295C394.14,1759.515 394.303,1761.44 394.632,1763.074C394.961,1764.707 395.682,1766.299 396.79,1767.857C398.044,1769.411 399.653,1770.653 401.615,1771.578C403.578,1772.503 405.857,1772.965 408.448,1772.965C410.303,1772.965 412.082,1772.711 413.786,1772.19C414.752,1771.895 415.548,1771.503 416.182,1771.024C416.811,1770.54 417.127,1769.965 417.127,1769.299C417.132,1768.782 416.982,1768.282 416.69,1767.799C416.394,1767.315 415.803,1767.078 414.911,1767.078L413.465,1767.078L412.019,1767.186C408.907,1767.186 406.686,1765.89 405.361,1763.299C404.769,1762.332 404.419,1761.407 404.311,1760.515C404.203,1759.628 404.115,1757.999 404.044,1755.624L404.044,1755.29L404.132,1719.161L413.915,1719.161ZM437.532,1726.164L437.532,1726.056C437.532,1725.089 437.611,1724.202 437.761,1723.385C437.911,1722.572 438.19,1721.772 438.602,1720.997C439.011,1720.218 439.698,1719.589 440.661,1719.106C441.623,1718.622 442.848,1718.385 444.332,1718.385C445.815,1718.385 446.961,1718.606 447.773,1719.047C448.59,1719.493 449.477,1720.197 450.44,1721.16C451.473,1722.347 452.29,1723.143 452.882,1723.552C453.473,1723.964 454.211,1724.164 455.102,1724.164C456.436,1724.164 457.527,1723.702 458.386,1722.777C459.236,1721.847 459.669,1720.718 459.669,1719.385C459.677,1717.01 458.59,1715.347 456.402,1714.381C454.219,1713.418 451.498,1712.935 448.236,1712.935C444.823,1712.935 441.473,1713.327 438.169,1714.102C434.869,1714.881 432.332,1715.789 430.548,1716.827C429.365,1717.493 428.582,1718.272 428.211,1719.16C427.84,1720.052 427.648,1721.497 427.644,1723.497L427.532,1769.964C427.532,1770.781 427.677,1771.302 427.973,1771.522C428.269,1771.743 428.861,1771.856 429.752,1771.856L435.419,1771.856C436.161,1771.856 436.665,1771.743 436.923,1771.522C437.182,1771.302 437.352,1770.781 437.427,1769.964L437.532,1726.164ZM511.276,1742.731C511.21,1739.397 510.664,1735.985 509.63,1732.502C508.605,1729.018 507.035,1725.793 504.935,1722.831C502.826,1719.864 500.185,1717.472 497.001,1715.66C493.818,1713.843 490.151,1712.935 486.001,1712.935C482.072,1712.935 478.535,1713.752 475.38,1715.381C472.222,1717.01 469.53,1719.256 467.301,1722.106C465.072,1724.96 463.376,1728.202 462.222,1731.835C461.064,1735.468 460.48,1739.247 460.472,1743.172C460.46,1746.952 461.01,1750.639 462.114,1754.235C463.214,1757.831 464.855,1761.056 467.035,1763.91C469.214,1766.764 471.914,1769.022 475.135,1770.689C478.355,1772.356 481.964,1773.193 485.968,1773.193C489.897,1773.193 493.439,1772.335 496.589,1770.631C499.743,1768.931 502.418,1766.652 504.61,1763.797C506.805,1760.943 508.464,1757.681 509.58,1754.014C510.701,1750.347 511.268,1746.581 511.276,1742.731M500.718,1741.947C500.697,1749.731 499.351,1755.756 496.672,1760.014C493.993,1764.277 490.58,1766.406 486.43,1766.406C482.201,1766.406 478.543,1764.152 475.439,1759.627C472.335,1755.106 470.797,1749.102 470.814,1741.618C470.83,1734.947 472.155,1729.535 474.797,1725.385C477.439,1721.235 480.947,1719.16 485.318,1719.16C489.322,1719.16 492.818,1721.143 495.81,1725.11C498.801,1729.072 500.439,1734.689 500.718,1741.947M564.832,1731.279C564.837,1728.908 564.695,1726.795 564.403,1724.941C564.112,1723.091 563.299,1721.237 561.97,1719.387C560.641,1717.533 558.495,1715.995 555.533,1714.77C552.574,1713.55 548.607,1712.937 543.645,1712.937C542.828,1712.937 541.77,1712.97 540.474,1713.05C539.178,1713.12 537.641,1713.27 535.862,1713.491C534.082,1713.716 532.17,1714.1 530.128,1714.658C528.095,1715.216 526.22,1715.937 524.512,1716.825C522.732,1717.716 521.541,1718.733 520.949,1719.883C520.353,1721.033 520.053,1722.716 520.045,1724.941L519.941,1769.745C519.937,1770.558 520.082,1771.116 520.382,1771.412C520.674,1771.708 521.232,1771.854 522.045,1771.854L527.495,1771.854C528.382,1771.854 528.995,1771.729 529.328,1771.466C529.666,1771.208 529.832,1770.595 529.837,1769.633L529.933,1728.608C529.937,1727.5 530.028,1726.462 530.216,1725.5C530.403,1724.533 530.87,1723.516 531.612,1722.441C532.357,1721.366 533.582,1720.479 535.287,1719.775C536.995,1719.07 539.22,1718.716 541.962,1718.716C545.003,1718.716 547.428,1719.141 549.241,1719.995C551.053,1720.85 552.366,1721.958 553.183,1723.329C553.991,1724.7 554.487,1726.07 554.67,1727.445C554.849,1728.816 554.941,1730.429 554.937,1732.279L554.849,1769.633C554.845,1770.595 555.012,1771.208 555.345,1771.466C555.674,1771.729 556.324,1771.854 557.287,1771.854L563.399,1771.854C563.92,1771.783 564.274,1771.541 564.457,1771.133C564.645,1770.725 564.741,1770.225 564.741,1769.633L564.832,1731.279ZM587.648,1698.261C587.577,1696.632 586.968,1695.298 585.822,1694.261C584.677,1693.223 583.322,1692.707 581.768,1692.707C579.993,1692.707 578.527,1693.257 577.373,1694.369C576.223,1695.482 575.643,1696.89 575.639,1698.594C575.635,1700.223 576.173,1701.594 577.243,1702.707C578.314,1703.819 579.777,1704.373 581.631,1704.373C583.481,1704.373 584.947,1703.765 586.023,1702.54C587.102,1701.319 587.643,1699.89 587.648,1698.261M586.494,1716.382C586.494,1715.495 586.348,1714.915 586.052,1714.657C585.756,1714.399 585.16,1714.27 584.273,1714.27L578.494,1714.27C577.606,1714.27 577.065,1714.415 576.881,1714.715C576.694,1715.011 576.598,1715.565 576.598,1716.382L576.469,1769.857C576.469,1770.67 576.56,1771.207 576.744,1771.465C576.931,1771.728 577.39,1771.857 578.131,1771.857L584.135,1771.857C585.023,1771.857 585.619,1771.745 585.915,1771.524C586.21,1771.299 586.36,1770.745 586.365,1769.857L586.494,1716.382ZM634.649,1730.723L634.649,1730.611C634.657,1728.465 634.511,1726.482 634.22,1724.665C633.928,1722.848 633.265,1721.032 632.232,1719.219C631.199,1717.402 629.536,1715.898 627.24,1714.715C624.945,1713.527 621.907,1712.936 618.128,1712.936C612.349,1712.936 607.49,1714.307 603.553,1717.048C601.774,1718.311 600.382,1719.736 599.374,1721.327C598.374,1722.919 597.865,1724.536 597.865,1726.165C597.857,1727.719 598.34,1728.89 599.303,1729.669C600.261,1730.444 601.261,1730.836 602.303,1730.836C603.707,1730.836 604.745,1730.444 605.415,1729.669C606.082,1728.89 606.678,1727.719 607.203,1726.165L607.315,1726.052C607.686,1725.165 608.061,1724.369 608.432,1723.665C608.803,1722.961 609.34,1722.219 610.049,1721.44C610.757,1720.661 611.661,1720.032 612.778,1719.548C613.89,1719.069 615.19,1718.827 616.67,1718.827C618.674,1718.827 620.245,1719.219 621.39,1719.994C622.536,1720.773 623.37,1721.757 623.886,1722.94C624.403,1724.127 624.715,1725.332 624.824,1726.557C624.928,1727.777 624.986,1729.165 624.978,1730.723L624.965,1736.394C619.328,1738.023 614.878,1739.411 611.615,1740.561C608.349,1741.711 605.42,1743.044 602.824,1744.565C600.224,1746.082 598.22,1747.936 596.803,1750.123C595.395,1752.307 594.682,1754.957 594.674,1758.069C594.665,1761.552 595.457,1764.352 597.049,1766.465C598.632,1768.573 600.557,1770.115 602.815,1771.082C605.074,1772.04 607.128,1772.636 608.982,1772.857C610.832,1773.077 612.536,1773.19 614.09,1773.19C616.836,1773.19 619.649,1772.948 622.545,1772.469C625.436,1771.986 627.845,1771.227 629.778,1770.19C631.703,1769.152 632.97,1767.911 633.565,1766.465C634.161,1765.019 634.499,1762.927 634.582,1760.186L634.649,1730.723ZM624.911,1759.069C624.907,1760.111 624.832,1761.057 624.678,1761.907C624.532,1762.757 624.178,1763.594 623.62,1764.407C623.061,1765.223 622.17,1765.89 620.945,1766.407C619.72,1766.927 618.107,1767.186 616.107,1767.186C613.515,1767.186 611.42,1766.723 609.828,1765.794C608.24,1764.869 607.095,1763.777 606.39,1762.519C605.69,1761.257 605.249,1760.127 605.065,1759.127C604.882,1758.127 604.79,1757.294 604.795,1756.627C604.803,1752.773 606.661,1749.694 610.374,1747.398C611.932,1746.361 613.753,1745.452 615.828,1744.677C617.907,1743.898 620.949,1742.877 624.953,1741.619L624.911,1759.069ZM655.506,1726.164L655.506,1726.056C655.506,1725.089 655.585,1724.202 655.735,1723.385C655.885,1722.572 656.165,1721.772 656.577,1720.997C656.985,1720.218 657.673,1719.589 658.635,1719.106C659.598,1718.622 660.823,1718.385 662.306,1718.385C663.785,1718.385 664.935,1718.606 665.748,1719.047C666.565,1719.493 667.452,1720.197 668.415,1721.16C669.448,1722.347 670.265,1723.143 670.856,1723.552C671.448,1723.964 672.185,1724.164 673.077,1724.164C674.41,1724.164 675.506,1723.702 676.356,1722.777C677.215,1721.847 677.64,1720.718 677.644,1719.385C677.648,1717.01 676.56,1715.347 674.377,1714.381C672.194,1713.418 669.473,1712.935 666.21,1712.935C662.798,1712.935 659.448,1713.327 656.148,1714.102C652.844,1714.881 650.302,1715.789 648.523,1716.827C647.34,1717.493 646.556,1718.272 646.185,1719.16C645.81,1720.052 645.623,1721.497 645.619,1723.497L645.506,1769.964C645.506,1770.781 645.652,1771.302 645.948,1771.522C646.244,1771.743 646.835,1771.856 647.727,1771.856L653.394,1771.856C654.135,1771.856 654.64,1771.743 654.898,1771.522C655.16,1771.302 655.323,1770.781 655.402,1769.964L655.506,1726.164ZM715.17,1717.605C715.541,1716.863 715.766,1716.38 715.841,1716.159C715.916,1715.938 715.954,1715.751 715.954,1715.605C715.954,1715.009 715.754,1714.642 715.345,1714.492C714.937,1714.342 714.437,1714.272 713.845,1714.272L682.816,1714.272C683.262,1715.367 683.483,1716.617 683.483,1718.017C683.479,1718.897 683.37,1719.726 683.141,1720.497L703.379,1720.497L677.583,1768.742C677.212,1769.413 676.987,1769.855 676.912,1770.076C676.841,1770.297 676.8,1770.522 676.8,1770.742C676.8,1771.188 676.95,1771.488 677.241,1771.634C677.537,1771.78 677.983,1771.859 678.579,1771.859L711.862,1771.859C711.695,1770.834 711.612,1769.772 711.612,1768.659C711.616,1767.642 711.687,1766.672 711.816,1765.742L689.708,1765.742L715.17,1717.605ZM739.066,1765.225C739.063,1766.559 738.8,1767.874 738.278,1769.171C737.756,1770.468 737.05,1771.635 736.158,1772.673C735.266,1773.71 734.171,1774.544 732.872,1775.174C731.574,1775.804 730.109,1776.119 728.479,1776.119C726.849,1776.119 725.367,1775.804 724.035,1775.174C722.702,1774.544 721.574,1773.71 720.65,1772.673C719.726,1771.635 719.006,1770.449 718.491,1769.115C717.975,1767.781 717.719,1766.373 717.723,1764.891C717.727,1763.112 718.064,1761.519 718.735,1760.111C719.405,1758.703 720.26,1757.535 721.3,1756.609C722.34,1755.683 723.49,1754.96 724.751,1754.441C726.013,1753.922 727.236,1753.663 728.422,1753.663C729.83,1753.663 731.182,1753.96 732.477,1754.552C733.773,1755.145 734.919,1755.942 735.918,1756.943C736.916,1757.943 737.691,1759.166 738.243,1760.611C738.796,1762.056 739.07,1763.594 739.066,1765.225ZM360.918,1724.352C351.922,1720.209 344.584,1716.895 344.584,1707.781C344.584,1700.916 349.91,1694.88 357.722,1694.88C365.297,1694.88 368.611,1699.851 370.978,1703.52C372.28,1705.651 373.701,1707.663 376.66,1707.663C379.619,1707.663 381.749,1705.296 381.749,1702.218C381.749,1696.3 372.399,1687.897 358.314,1687.897C343.282,1687.897 333.813,1697.484 333.813,1710.148C333.813,1724.233 345.768,1730.033 350.502,1732.282L356.893,1735.359C366.007,1739.62 374.174,1743.526 374.174,1753.705C374.174,1761.398 368.611,1767.553 359.852,1767.553C349.91,1767.553 346.241,1760.096 344.466,1756.427C343.164,1753.942 341.743,1751.338 338.311,1751.338C335.589,1751.338 332.748,1753.35 332.748,1757.137C332.748,1762.227 339.968,1775.01 359.024,1775.01C374.411,1775.01 385.181,1765.186 385.181,1751.219C385.181,1736.188 372.99,1730.151 367.072,1727.192L360.918,1724.352ZM780.333,1768.514C782.388,1766.943 784.179,1765.064 785.704,1762.872L778.85,1758.897L778.408,1758.639C778.342,1758.743 778.279,1758.843 778.217,1758.943L780.333,1768.514ZM744.579,1795.868C744.575,1797.277 745.392,1797.981 747.021,1797.981L752.579,1797.981C753.842,1797.981 754.471,1797.314 754.475,1795.981L754.538,1769.189C754.613,1769.189 754.646,1769.222 754.646,1769.297C756.35,1770.41 758.075,1771.318 759.812,1772.022C761.55,1772.727 763.792,1773.081 766.533,1773.081C768.546,1773.081 770.45,1772.864 772.242,1772.431L770.704,1765.485C769.138,1766.097 767.458,1766.41 765.663,1766.41C763.808,1766.41 761.958,1766.077 760.108,1765.406C758.254,1764.739 756.404,1763.852 754.554,1762.739L754.638,1729.056C754.638,1727.572 754.717,1726.331 754.867,1725.331C755.017,1724.331 755.392,1723.331 755.983,1722.331C756.579,1721.331 757.546,1720.531 758.879,1719.939C760.217,1719.347 762.029,1719.052 764.329,1719.052C769.963,1719.052 774.367,1721.202 777.546,1725.497C780.721,1729.797 782.3,1735.393 782.283,1742.285C782.275,1745.268 782.021,1748.002 781.513,1750.477L782.929,1751.297L789.725,1755.239C790.188,1754.043 790.588,1752.818 790.933,1751.568C791.979,1747.752 792.508,1744.027 792.513,1740.393C792.525,1737.135 792.125,1733.91 791.317,1730.722C790.508,1727.535 789.125,1724.61 787.171,1721.939C785.208,1719.272 782.529,1717.106 779.125,1715.439C775.721,1713.768 771.571,1712.935 766.679,1712.935C762.088,1712.935 757.825,1713.66 753.888,1715.106C749.958,1716.547 747.358,1718.197 746.096,1720.052C745.575,1720.943 745.242,1721.868 745.092,1722.831C744.938,1723.793 744.825,1725.61 744.742,1728.277L744.742,1728.722L744.579,1795.868ZM811.187,1767.692L811.374,1688.588C811.374,1687.776 811.253,1687.276 810.991,1687.088C810.733,1686.905 810.162,1686.813 809.266,1686.813L803.708,1686.813C802.891,1686.813 802.316,1686.905 801.987,1687.088C801.649,1687.276 801.478,1687.776 801.478,1688.588L801.303,1761.959L806.774,1765.13L809.103,1766.484L811.187,1767.692ZM804.139,1793.772L778.602,1759.118L772.739,1751.168L771.714,1749.772L780.381,1788.997L788.377,1825.185L803.218,1795.602L804.139,1793.772ZM778.6,1759.119L804.138,1793.773L806.212,1793.507L839.663,1789.198L807.071,1770.286L804.733,1768.927L795.008,1763.29L780.888,1755.098L772.967,1750.502L771.712,1749.773L772.742,1751.169L778.6,1759.119Z" style="fill:rgb(0,113,166);fill-rule:nonzero;"/>
    </g>
</svg>
